PathFileType	4	(X/Y/Z)	C:\Users\Basilio\Documents\Thesis Gigler\squatting_fais\c3dfiles\040\SLS_pre_front2\markers_experimental.trc
DataRate	CameraRate	NumFrames	NumMarkers	Units	OrigDataRate	OrigDataStartFrame	OrigNumFrames
200.000000	200.000000	4	62	mm	200.000000	919	1471
Frame#	Time	FHD			LBHD			RBHD			C7			T10			CLAV			LSHO			LUUPA			LMUPA			LDUPA			LLEP			LMEP			LRAD			LUL			LRFIN			RSHO			RUPA1			RMUPA			RDUPA			RLEP			RMEP			RRAD			RUL			RUFIN			LASI			RASI			USACR			LSACR			RSACR			LTHI1			LTHI2			LTHI3			LTHI4			LLFC			LMFC			LTIB1			LTIB2			LTIB3			LTIB4			LLMAL			LMMAL			LHEE			LMT1			LMT2			LMT5			RTHI			RTHI2			RTHI3			RTHI4			RLFC			RMFC			RTIB1			RTIB2			RTIB3			RTIB4			RLMAL			RMMAL			RHEE			RMT1			RMT2			RMT5			*61			
		X1	Y1	Z1	X2	Y2	Z2	X3	Y3	Z3	X4	Y4	Z4	X5	Y5	Z5	X6	Y6	Z6	X7	Y7	Z7	X8	Y8	Z8	X9	Y9	Z9	X10	Y10	Z10	X11	Y11	Z11	X12	Y12	Z12	X13	Y13	Z13	X14	Y14	Z14	X15	Y15	Z15	X16	Y16	Z16	X17	Y17	Z17	X18	Y18	Z18	X19	Y19	Z19	X20	Y20	Z20	X21	Y21	Z21	X22	Y22	Z22	X23	Y23	Z23	X24	Y24	Z24	X25	Y25	Z25	X26	Y26	Z26	X27	Y27	Z27	X28	Y28	Z28	X29	Y29	Z29	X30	Y30	Z30	X31	Y31	Z31	X32	Y32	Z32	X33	Y33	Z33	X34	Y34	Z34	X35	Y35	Z35	X36	Y36	Z36	X37	Y37	Z37	X38	Y38	Z38	X39	Y39	Z39	X40	Y40	Z40	X41	Y41	Z41	X42	Y42	Z42	X43	Y43	Z43	X44	Y44	Z44	X45	Y45	Z45	X46	Y46	Z46	X47	Y47	Z47	X48	Y48	Z48	X49	Y49	Z49	X50	Y50	Z50	X51	Y51	Z51	X52	Y52	Z52	X53	Y53	Z53	X54	Y54	Z54	X55	Y55	Z55	X56	Y56	Z56	X57	Y57	Z57	X58	Y58	Z58	X59	Y59	Z59	X60	Y60	Z60	X61	Y61	Z61	X62	Y62	Z62	

920	4.595	-207.7317047119141	1794.197387695313	-1134.914306640625	-324.9809265136719	1727.495239257813	-1176.504638671875	-374.0708007812501	1684.523559570313	-1044.58935546875	-376.8001708984376	1574.153686523438	-1089.892700195313	-423.3045654296876	1258.46044921875	-1082.1435546875	-250.5743255615235	1498.39208984375	-1092.0927734375	-306.3071289062501	1536.1376953125	-1261.39892578125	-277.6806030273438	1328.0673828125	-1322.974243164063	-229.8946075439454	1319.478149414063	-1309.831298828125	-252.3886108398438	1263.510986328125	-1324.768188476563	-241.0356903076172	1202.790771484375	-1314.393188476563	-255.1405944824219	1194.173950195313	-1250.475708007813	-30.56500053405762	1009.563842773438	-1269.04150390625	-59.90262985229494	998.1458740234377	-1337.4345703125	35.32786560058594	952.0796508789065	-1292.452758789063	-285.1399841308594	1504.98974609375	-922.5959472656252	-298.0249633789063	1305.428588867188	-830.663024902344	-251.7183227539063	1293.031982421875	-835.357849121094	-275.6261596679688	1241.829467773438	-814.9534301757815	-247.0938873291016	1182.522583007813	-805.5524902343752	-274.6410217285157	1155.964477539063	-873.6496582031252	5.793549537658692	1064.233642578125	-905.4512939453127	-16.42936134338379	1020.047912597656	-846.8406982421877	85.04736328125001	1029.812744140625	-893.7817993164065	-244.8782196044922	1076.868530273438	-1180.595581054688	-253.1282653808594	1088.046508789063	-950.199890136719	-434.381561279297	1112.927612304688	-1069.366333007813	-439.1056213378907	1082.5126953125	-1095.44482421875	-442.6297912597657	1083.766479492188	-1039.360717773438	-347.2417297363282	810.3814697265627	-1220.98583984375	-302.7854309082032	738.2354736328126	-1223.21533203125	-257.7203979492188	746.3443603515626	-1230.128784179688	-319.3025207519532	684.1146850585939	-1206.23388671875	-291.3807067871094	552.7632446289064	-1190.726684570313	-283.4869079589844	541.8764648437501	-1058.591674804688	-261.4670410156251	330.9700927734376	-1134.094360351563	-336.6863403320313	292.8013305664063	-1164.739135742188	-293.4388427734376	284.1708984375001	-1154.0263671875	-287.8238525390626	210.0525665283204	-1112.413696289063	-356.8298339843751	123.9891738891602	-1110.362915039063	-317.7892150878907	142.6382141113282	-1034.28759765625	-414.7195739746095	96.42375183105472	-1050.772338867188	-200.5554809570313	60.42367553710939	-1050.510864257813	-204.3766174316407	51.92592239379884	-1097.078735351563	-261.3991699218751	35.34891510009766	-1138.20654296875	-241.2523956298829	823.572448730469	-869.7045898437502	-192.3332672119141	777.774108886719	-872.6057739257815	-161.3552856445313	787.6634521484377	-881.8005371093752	-201.6275634765626	695.7377929687501	-882.731872558594	-166.1689453125	571.3879394531251	-888.661071777344	-162.1775970458985	559.2034912109376	-1020.666320800781	-121.172836303711	384.2402954101564	-901.3530273437502	-198.2043609619141	312.5773315429688	-875.8740844726565	-153.4930877685547	305.9235229492188	-884.4014282226565	-137.6987762451172	257.6248779296876	-914.0776977539065	-194.3551788330079	142.3271942138672	-888.267517089844	-171.2710266113282	156.825180053711	-975.0906372070315	-249.6204376220704	88.67209625244142	-945.234558105469	-29.35497474670411	106.3222808837891	-947.216491699219	-35.12563705444337	109.1776657104492	-906.8081665039065	-74.5759963989258	79.76053619384767	-856.8745727539065	nan	nan	nan	
921	4.600000000000001	-206.6207275390626	1794.063110351563	-1134.704345703125	-323.6901550292969	1727.467895507813	-1176.041625976563	-372.9532165527344	1684.802490234375	-1044.206420898438	-375.5756530761719	1574.319213867188	-1089.431518554688	-422.7601013183595	1258.549438476563	-1081.843017578125	-249.6977081298829	1498.045288085938	-1091.594360351563	-304.7339172363282	1535.701538085938	-1261.185302734375	-279.2558898925782	1326.6279296875	-1323.369384765625	-232.1190948486329	1317.28076171875	-1309.913208007813	-255.3802490234376	1261.539428710938	-1324.659912109375	-245.7427062988282	1200.743041992188	-1314.392822265625	-259.6453247070313	1192.710205078125	-1250.330444335938	-40.09526824951173	1002.147399902344	-1271.0078125	-70.21726226806642	991.7746582031252	-1339.227416992188	23.89635848999024	942.2232666015627	-1294.888061523438	-283.6499633789063	1504.929321289063	-921.9050903320315	-299.1864318847657	1304.508544921875	-829.9194946289065	-253.2192993164063	1291.5947265625	-834.877136230469	-278.1493530273438	1240.806396484375	-814.5559082031252	-250.2725982666016	1180.725830078125	-805.3604736328127	-278.6476135253907	1155.05078125	-873.6199951171877	-0.3718740046024323	1055.488647460938	-902.2412719726565	-24.80963325500489	1011.924621582031	-844.0689086914065	77.9624710083008	1018.410339355469	-889.1260375976565	-244.6126098632813	1076.82958984375	-1180.52197265625	-252.4163208007813	1087.8515625	-950.4058837890627	-434.0558471679689	1113.239624023438	-1069.087890625	-438.7094116210939	1082.646728515625	-1095.125366210938	-441.9488830566407	1083.90478515625	-1038.97021484375	-347.1130676269532	810.4924926757815	-1220.990112304688	-302.7111206054688	738.2277221679689	-1223.271850585938	-257.6418457031251	746.3839721679689	-1230.130981445313	-319.1856994628907	684.1275024414064	-1206.294311523438	-291.2643737792969	552.7288208007814	-1190.8583984375	-283.3682861328126	541.9079589843751	-1058.702880859375	-260.9763183593751	330.4394226074219	-1134.356323242188	-336.7548828125001	292.8080749511719	-1164.864868164063	-293.5571594238282	284.6642761230469	-1154.23388671875	-287.7251281738282	210.0854797363282	-1112.822265625	-356.9570617675782	124.0207443237305	-1110.519897460938	-317.8817749023438	142.619873046875	-1034.524780273438	-414.6704711914064	96.43959808349612	-1050.849243164063	-200.1800842285157	60.22050094604494	-1050.541625976563	-205.3251495361329	52.08917236328126	-1097.376220703125	-261.5378723144532	35.37154388427735	-1138.319580078125	-240.7097167968751	823.2741699218752	-869.4215087890627	-191.6127014160157	777.5924072265627	-873.1049804687502	-160.6047668457032	787.4993896484377	-882.593933105469	-200.9333801269532	694.8362426757814	-882.5872192382815	-165.8653411865235	571.3477783203126	-889.0208129882815	-162.405746459961	559.0692749023439	-1021.040100097656	-122.874755859375	383.7771301269532	-901.472351074219	-200.4711914062501	312.8049316406251	-876.292419433594	-155.5481567382813	305.8324279785157	-884.8939208984377	-140.2196502685547	256.8941040039063	-914.2802734375002	-198.2746582031251	142.6159820556641	-888.7005004882815	-175.0722351074219	156.9212951660157	-975.5728149414065	-254.6544036865235	89.3783645629883	-945.0322265625002	-33.14605331420899	104.8449325561524	-947.1665039062502	-38.88697052001954	107.7934265136719	-906.8815917968752	-79.35609436035158	79.11403656005861	-857.0398559570315	nan	nan	nan	
922	4.605	-205.3477630615235	1793.898315429688	-1134.5009765625	-322.4500427246094	1727.37060546875	-1175.5986328125	-371.8698425292969	1684.7919921875	-1043.781494140625	-374.6529235839844	1574.44970703125	-1089.082641601563	-422.0487060546876	1258.613647460938	-1081.353393554688	-248.7791748046876	1498.160888671875	-1091.012573242188	-303.1974792480469	1535.163452148438	-1261.137817382813	-280.7568054199219	1325.545043945313	-1324.006469726563	-234.3350982666016	1315.267578125	-1310.1376953125	-258.5779113769532	1259.829956054688	-1324.728881835938	-250.1292877197266	1198.7060546875	-1314.367797851563	-264.2753906250001	1191.5419921875	-1250.173583984375	-49.42001342773439	994.920104980469	-1272.8994140625	-80.1769256591797	985.9506835937502	-1340.939208984375	11.52876281738281	932.4931640625002	-1296.041748046875	-282.7027587890626	1504.652465820313	-921.3316040039065	-300.3724975585938	1304.00537109375	-829.4199218750002	-254.6884765625001	1290.10986328125	-834.1460571289065	-280.3473510742188	1239.755981445313	-814.1892700195315	-254.0668487548829	1179.44140625	-805.148132324219	-282.2135314941407	1154.319580078125	-873.4281005859377	-6.419514179229738	1046.768188476563	-899.2437744140627	-32.67264938354493	1004.349060058594	-841.0825805664065	70.3293914794922	1007.070739746094	-885.0041503906252	-244.4015045166016	1076.761474609375	-1180.540649414063	-252.2290191650391	1087.246948242188	-950.0866699218752	-433.7423706054689	1113.409545898438	-1068.697998046875	-438.3983459472657	1082.74853515625	-1094.865966796875	-441.5876464843751	1084.027221679688	-1038.606811523438	-347.0496215820313	810.5985107421877	-1220.987060546875	-302.6475830078126	738.2805786132814	-1223.284423828125	-257.5728149414063	746.3715209960939	-1230.23486328125	-319.1480712890626	684.2071533203126	-1206.351318359375	-291.2493896484376	552.7738037109376	-1190.993286132813	-283.1932678222657	541.9138183593751	-1058.837158203125	-261.3908691406251	331.0611267089844	-1134.713256835938	-336.9087524414063	292.8775939941407	-1164.9423828125	-293.5853576660157	284.2265014648438	-1154.3837890625	-287.7419738769532	210.0342559814454	-1113.051513671875	-356.9482421875001	123.9680099487305	-1110.74658203125	-317.9074707031251	142.6558990478516	-1034.672607421875	-414.7048339843751	96.44422149658206	-1050.857788085938	-200.6295776367188	60.47742462158205	-1050.527465820313	-206.3301849365235	52.29357147216798	-1097.437255859375	-261.5363464355469	35.32769012451173	-1138.381225585938	-239.8720397949219	822.9717407226565	-869.5857543945315	-191.223129272461	777.1635742187502	-873.7313232421877	-160.1282196044922	786.9885864257815	-883.0181274414065	-200.1973419189454	694.9468994140626	-883.225524902344	-165.7587585449219	571.0358886718751	-889.3577880859377	-162.6901550292969	558.8930053710939	-1021.369201660156	-124.5784301757813	383.1512145996094	-902.0170898437502	-203.2036590576172	313.1403503417969	-876.5065917968752	-158.4442443847657	305.5622253417969	-885.2568969726565	-143.5677032470703	256.8533935546876	-914.841491699219	-202.4089660644532	142.6917724609375	-888.630310058594	-179.8377532958985	157.5675659179688	-975.4764404296877	-258.5641174316407	89.77705383300783	-945.6621704101565	-37.7022933959961	103.7403640747071	-947.245788574219	-43.29655456542969	106.5928344726563	-907.257995605469	-83.49938964843751	78.28480529785158	-857.1026611328127	nan	nan	nan	
923	4.61	-204.1334991455079	1793.780639648438	-1133.974975585938	-321.4164733886719	1727.2861328125	-1175.309814453125	-370.5722961425782	1685.19921875	-1043.196166992188	-373.3851318359376	1574.554809570313	-1088.598266601563	-422.5747375488282	1258.439819335938	-1081.357421875	-247.8901062011719	1497.78759765625	-1090.441528320313	-301.5924072265626	1534.689575195313	-1260.994995117188	-281.6644897460938	1324.297973632813	-1325.053466796875	-235.6352233886719	1313.271728515625	-1310.705810546875	-261.8188476562501	1258.04150390625	-1324.906494140625	-254.8221130371094	1196.883544921875	-1314.354370117188	-268.6574096679688	1190.050048828125	-1250.016723632813	-59.02849197387697	988.426208496094	-1274.67333984375	-90.45223236083986	980.2398681640627	-1342.554931640625	0.005916674621403219	923.0667724609377	-1298.446655273438	-281.7210083007813	1504.33642578125	-920.6619873046877	-301.3647766113282	1303.307006835938	-828.6785888671877	-256.1863708496094	1288.850219726563	-833.9326782226565	-282.4916381835938	1238.885864257813	-813.874206542969	-257.4320678710938	1178.088989257813	-804.961364746094	-285.8546752929688	1153.5263671875	-873.460876464844	-13.39442729949952	1038.353759765625	-895.9755859375002	-41.1159896850586	996.7497558593752	-838.2575683593752	62.41262817382814	996.6712036132815	-880.8491821289065	-244.1100769042969	1076.714721679688	-1180.426513671875	-251.4954986572266	1087.9794921875	-950.4171142578127	-433.2251892089845	1113.383911132813	-1068.334228515625	-438.0119628906251	1082.861938476563	-1094.6416015625	-440.9253845214845	1084.109741210938	-1038.199462890625	-347.0597839355469	810.7288818359377	-1220.904174804688	-302.5492858886719	738.3076782226564	-1223.281616210938	-257.4773864746094	746.4428100585939	-1230.327270507813	-319.0406494140626	684.2110595703126	-1206.41015625	-291.2611999511719	552.8107299804689	-1191.078369140625	-283.0583496093751	541.8809814453126	-1058.974731445313	-261.3275146484376	331.1221618652344	-1134.994262695313	-337.1964721679688	293.3674621582032	-1165.000366210938	-293.7467651367188	284.6906738281251	-1154.4501953125	-287.7639770507813	210.0068511962891	-1113.321411132813	-357.0116577148438	123.9493942260742	-1110.83251953125	-317.8644104003907	142.7386322021485	-1034.791381835938	-414.6980285644532	96.50408172607425	-1050.962768554688	-200.6764526367188	60.53896331787111	-1050.680541992188	-205.6539001464844	51.54716110229494	-1097.042358398438	-261.5393676757813	35.26191329956055	-1138.440307617188	-239.3114318847657	822.730651855469	-869.6336059570315	-190.4937896728516	777.1783447265627	-874.2352294921877	-159.768783569336	786.7771606445315	-883.140075683594	-199.9414825439454	694.7675781250001	-883.4578857421877	-165.8257293701172	570.7842407226564	-889.6773071289065	-163.6827697753907	558.8963012695314	-1021.815490722656	-126.2432098388672	382.9448547363282	-902.260192871094	-205.2260894775391	313.2343750000001	-876.814880371094	-160.9095916748047	305.2034301757813	-885.6458740234377	-146.0713653564453	256.0286865234376	-915.091979980469	-206.0705718994141	143.3422546386719	-888.8083496093752	-183.623519897461	157.3566589355469	-976.0039672851565	-263.3189086914063	90.52990722656251	-945.9090576171877	-41.8396110534668	102.635482788086	-947.5139160156252	-47.23747253417969	105.7510528564453	-907.387878417969	-87.76866149902345	77.58376312255861	-857.6819458007815	nan	nan	nan	
